<svg width="48" height="50" viewBox="0 0 48 50" fill="none" xmlns="http://www.w3.org/2000/svg">
<circle cx="24" cy="24" r="23.5" fill="white" stroke="black"/>
<path d="M11.084 30.972C11.036 30.972 10.892 30.948 10.652 30.9C10.436 30.852 10.22 30.792 10.004 30.72C9.812 30.648 9.704 30.564 9.68 30.468C9.632 30.012 9.752 29.364 10.04 28.524C10.328 27.684 10.712 26.748 11.192 25.716C11.696 24.66 12.212 23.628 12.74 22.62C12.644 22.62 12.536 22.62 12.416 22.62C12.32 22.596 12.212 22.584 12.092 22.584C11.804 22.536 11.66 22.404 11.66 22.188C11.66 22.068 11.792 22.008 12.056 22.008C12.248 22.008 12.416 22.02 12.56 22.044C12.704 22.044 12.86 22.044 13.028 22.044C13.508 21.132 13.952 20.316 14.36 19.596C14.768 18.852 15.056 18.288 15.224 17.904C15.368 17.64 15.464 17.424 15.512 17.256C15.56 17.064 15.584 16.92 15.584 16.824C15.584 16.68 15.56 16.56 15.512 16.464C15.56 16.176 15.728 15.792 16.016 15.312C16.328 14.832 16.712 14.352 17.168 13.872C17.624 13.392 18.116 12.996 18.644 12.684C19.172 12.348 19.664 12.18 20.12 12.18C20.264 12.18 20.48 12.228 20.768 12.324C21.08 12.396 21.38 12.516 21.668 12.684C21.956 12.852 22.136 13.092 22.208 13.404C22.232 13.452 22.244 13.524 22.244 13.62C22.244 13.692 22.208 13.728 22.136 13.728C22.088 13.728 22.016 13.716 21.92 13.692C21.848 13.644 21.788 13.62 21.74 13.62C21.212 13.62 20.636 13.872 20.012 14.376C19.412 14.856 18.788 15.504 18.14 16.32C17.492 17.136 16.844 18.048 16.196 19.056C15.572 20.04 14.972 21.036 14.396 22.044C15.596 21.996 16.868 21.852 18.212 21.612C19.556 21.348 20.888 21 22.208 20.568C23.528 20.136 24.752 19.608 25.88 18.984C27.008 18.36 27.956 17.652 28.724 16.86C29.564 15.972 29.984 15.06 29.984 14.124C29.984 13.428 29.72 12.78 29.192 12.18C28.664 11.58 27.836 11.124 26.708 10.812C26.036 10.62 25.268 10.476 24.404 10.38C23.564 10.284 22.652 10.236 21.668 10.236C20.132 10.236 18.548 10.368 16.916 10.632C15.308 10.896 13.796 11.304 12.38 11.856C10.964 12.384 9.776 13.056 8.816 13.872C7.856 14.688 7.28 15.66 7.088 16.788C7.016 17.364 7.124 17.82 7.412 18.156C7.7 18.492 8.048 18.756 8.456 18.948C8.888 19.116 9.224 19.272 9.464 19.416C9.632 19.56 9.716 19.68 9.716 19.776C9.716 19.944 9.56 20.004 9.248 19.956C8.912 19.884 8.492 19.716 7.988 19.452C7.508 19.188 7.076 18.828 6.692 18.372C6.332 17.892 6.152 17.34 6.152 16.716C6.152 16.62 6.152 16.524 6.152 16.428C6.176 16.332 6.2 16.236 6.224 16.14C6.224 16.116 6.212 16.044 6.188 15.924C6.188 15.78 6.188 15.66 6.188 15.564C6.332 14.82 6.692 14.124 7.268 13.476C7.868 12.804 8.54 12.216 9.284 11.712C10.052 11.184 10.76 10.764 11.408 10.452C12.536 9.9 13.892 9.468 15.476 9.156C17.06 8.82 18.716 8.652 20.444 8.652C21.5 8.652 22.544 8.724 23.576 8.868C24.632 9.012 25.652 9.24 26.636 9.552C28.004 10.008 29.06 10.716 29.804 11.676C30.572 12.612 30.92 13.596 30.848 14.628C30.776 15.612 30.428 16.5 29.804 17.292C29.204 18.084 28.424 18.78 27.464 19.38C26.528 19.956 25.484 20.46 24.332 20.892C23.204 21.3 22.064 21.636 20.912 21.9C19.808 22.14 18.632 22.32 17.384 22.44C16.16 22.56 15.056 22.632 14.072 22.656C13.496 23.688 12.98 24.66 12.524 25.572C12.092 26.484 11.768 27.216 11.552 27.768C11.36 28.296 11.264 28.668 11.264 28.884C11.264 29.22 11.396 29.388 11.66 29.388C11.996 29.388 12.356 29.16 12.74 28.704C13.004 28.392 13.244 28.104 13.46 27.84C13.7 27.552 13.904 27.432 14.072 27.48C14.096 27.504 14.108 27.54 14.108 27.588C14.108 27.708 14.024 27.876 13.856 28.092C13.688 28.284 13.592 28.392 13.568 28.416C13.4 28.656 13.172 28.98 12.884 29.388C12.62 29.796 12.332 30.156 12.02 30.468C11.732 30.804 11.42 30.972 11.084 30.972Z" fill="black"/>
<path d="M27.064 40.392C26.216 40.392 25.624 40.224 25.288 39.888C24.952 39.568 24.784 39.144 24.784 38.616C24.784 38.12 24.896 37.56 25.12 36.936C25.456 35.992 25.84 35.016 26.272 34.008C26.72 32.984 27.144 31.984 27.544 31.008C27.896 30.176 28.248 29.32 28.6 28.44C28.952 27.56 29.192 26.8 29.32 26.16C28.616 26.16 27.896 26.216 27.16 26.328C26.44 26.44 25.768 26.608 25.144 26.832C24.52 27.056 24.016 27.344 23.632 27.696C23.264 28.048 23.08 28.472 23.08 28.968C23.08 29.288 23.168 29.552 23.344 29.76C23.536 29.952 23.744 30.104 23.968 30.216C24.192 30.328 24.368 30.424 24.496 30.504C24.624 30.584 24.688 30.648 24.688 30.696C24.688 30.728 24.656 30.744 24.592 30.744C24.464 30.744 24.232 30.664 23.896 30.504C23.576 30.328 23.28 30.088 23.008 29.784C22.736 29.48 22.592 29.128 22.576 28.728C22.576 28.696 22.56 28.648 22.528 28.584C22.496 28.52 22.48 28.464 22.48 28.416C22.448 27.808 22.6 27.296 22.936 26.88C23.288 26.464 23.76 26.128 24.352 25.872C24.944 25.6 25.6 25.408 26.32 25.296C27.04 25.168 27.768 25.104 28.504 25.104C28.648 25.104 28.792 25.104 28.936 25.104C29.08 25.104 29.224 25.112 29.368 25.128C29.352 25.016 29.312 24.92 29.248 24.84C29.216 24.776 29.2 24.728 29.2 24.696C29.2 24.568 29.272 24.504 29.416 24.504C29.576 24.504 29.728 24.624 29.872 24.864C29.936 24.976 29.976 25.088 29.992 25.2C30.904 25.296 31.664 25.496 32.272 25.8C32.4 25.848 32.544 25.952 32.704 26.112C32.864 26.256 32.944 26.376 32.944 26.472C32.944 26.552 32.88 26.592 32.752 26.592C32.688 26.592 32.608 26.584 32.512 26.568C32.416 26.552 32.304 26.52 32.176 26.472C31.6 26.296 30.888 26.192 30.04 26.16C30.008 26.848 29.872 27.664 29.632 28.608C29.392 29.536 29.08 30.432 28.696 31.296C28.2 32.448 27.72 33.632 27.256 34.848C26.808 36.048 26.536 37.16 26.44 38.184C26.424 38.248 26.416 38.312 26.416 38.376C26.416 38.44 26.416 38.504 26.416 38.568C26.416 39 26.504 39.312 26.68 39.504C26.856 39.696 27.088 39.792 27.376 39.792C27.824 39.792 28.36 39.616 28.984 39.264C29.608 38.928 30.216 38.536 30.808 38.088C31.896 37.272 32.824 36.392 33.592 35.448C34.376 34.504 35.128 33.464 35.848 32.328C36.504 31.288 37.128 30.248 37.72 29.208C38.328 28.168 39.024 27.184 39.808 26.256C40 26 40.264 25.736 40.6 25.464C40.936 25.192 41.304 24.96 41.704 24.768C42.12 24.576 42.528 24.48 42.928 24.48C43.056 24.48 43.192 24.496 43.336 24.528C43.48 24.56 43.608 24.616 43.72 24.696C43.832 24.76 43.864 24.824 43.816 24.888C43.784 24.936 43.752 24.96 43.72 24.96C43.672 24.96 43.624 24.96 43.576 24.96C43.528 24.944 43.488 24.936 43.456 24.936C43.104 24.936 42.68 25.168 42.184 25.632C41.704 26.096 41.16 26.72 40.552 27.504C39.944 28.272 39.28 29.136 38.56 30.096C37.856 31.056 37.112 32.04 36.328 33.048C35.512 34.104 34.664 35.128 33.784 36.12C32.92 37.096 32.04 37.936 31.144 38.64C30.456 39.184 29.768 39.608 29.08 39.912C28.408 40.232 27.736 40.392 27.064 40.392Z" fill="black"/>
</svg>
